<svg xmlns="http://www.w3.org/2000/svg" viewBox="0 0 196 112" width="196" height="112">
  <path fill="#FFF" d="M81.8 107H19.3C8.6 107 0 98.4 0 87.7V25.3C0 14.6 8.6 6 19.3 6h62.5c10.6 0 19.3 8.6 19.3 19.3v62.5C101 98.4 92.4 107 81.8 107z"/>
  <path fill="#FD0" d="M81.8 6H19.3C8.6 6 0 14.6 0 25.3v62.4c0 5.1 2 9.8 5.3 13.2l92.2-82.6C93.2 10.2 87.9 6 81.8 6z"/>
  <path fill="#b5421a" d="M5.3 100.9c3.5 3.8 8.5 6.1 14 6.1h62.5c10.6 0 19.3-8.6 19.3-19.3V25.3c0-5.3-2.2-10.1-5.6-13.6L5.3 100.9z"/>
  <path fill="#FFF" d="M25.3 39.4h13.3v37.2H49V39.4h13.3V29.2H25.3zM65.5 29.2h10.6v47.4H65.5z"/>
  <path fill="#FFF" d="M80.5 29.2h16.9l6.2 25.3h.3l6.2-25.3h16.9v47.4h-10.5V38.5h-.3l-7.6 38.1h-10.7l-7.6-38.1h-.3v38.1H80.5z"/>
  <rect x="130" y="29" width="60" height="48" rx="4" fill="none"/>
  <text x="135" y="61" font-family="Arial,sans-serif" font-weight="700" font-size="16" fill="#333">.pl</text>
</svg>
